<svg width="770" height="730" viewBox="0 0 770 730" fill="none" xmlns="http://www.w3.org/2000/svg">
<g clip-path="url(#clip0_3_2)">
<rect y="1" width="769" height="729" fill="black"/>
<path d="M374.738 0.614014H0.329987V355.182H374.738V0.614014Z" fill="#F68D39"/>
<path d="M769.158 375.141H394.75V729.709H769.158V375.141Z" fill="#F68D39"/>
<path d="M769.15 375.141L394.75 729.709L0.329987 355.182L374.738 0.614014L769.15 375.141Z" fill="#F68D39"/>
<path d="M210.207 281.692C180.185 281.692 156.72 273.775 139.788 257.932C122.863 242.097 114.405 219.483 114.405 190.097V77.8971H163.366V188.382C163.366 207.464 167.486 221.206 175.749 229.601C184.012 238.003 195.598 242.197 210.508 242.197C225.417 242.197 236.995 238.003 245.258 229.601C253.521 221.206 257.657 207.464 257.657 188.382V77.8971H306.017V190.097C306.017 219.483 297.559 242.097 280.618 257.932C263.694 273.775 240.229 281.692 210.199 281.692H210.207Z" fill="black"/>
<path d="M581.471 657.35C564.546 657.35 548.329 655.204 532.802 650.91C517.291 646.617 504.795 641.03 495.329 634.167L511.953 599.25C521.012 605.359 531.754 610.368 544.136 614.277C556.535 618.193 569.072 620.148 581.763 620.148C591.44 620.148 599.24 619.247 605.188 617.432C611.135 615.623 615.522 613.092 618.342 609.845C621.161 606.605 622.575 602.881 622.575 598.68C622.575 593.34 620.357 589.093 615.929 585.946C611.492 582.799 605.651 580.221 598.395 578.221C591.148 576.22 583.136 574.312 574.369 572.496C565.602 570.688 556.844 568.441 548.077 565.771C539.31 563.101 531.299 559.669 524.051 555.468C516.796 551.275 510.897 545.735 506.363 538.864C501.837 531.992 499.562 523.221 499.562 512.533C499.562 501.084 502.845 490.635 509.394 481.194C515.942 471.745 525.814 464.212 539.009 458.58C552.204 452.955 568.787 450.139 588.726 450.139C602.027 450.139 615.124 451.616 628.027 454.579C640.913 457.541 652.304 461.973 662.176 467.89L647.056 503.092C637.184 497.752 627.312 493.79 617.44 491.212C607.568 488.634 597.891 487.349 588.426 487.349C578.96 487.349 571.201 488.403 565.156 490.496C559.111 492.597 554.772 495.321 552.156 498.652C549.531 501.992 548.231 505.854 548.231 510.248C548.231 515.395 550.441 519.55 554.877 522.698C559.306 525.845 565.156 528.376 572.403 530.284C579.659 532.192 587.678 534.101 596.429 536.009C605.196 537.917 613.962 540.118 622.729 542.595C631.496 545.081 639.499 548.42 646.755 552.614C654.003 556.815 659.893 562.347 664.435 569.218C668.969 576.089 671.236 584.776 671.236 595.264C671.236 606.521 667.913 616.831 661.266 626.172C654.62 635.521 644.691 643.062 631.496 648.786C618.293 654.511 601.621 657.373 581.471 657.373V657.35Z" fill="black"/>
</g>
<defs>
<clipPath id="clip0_3_2">
<rect width="770" height="730" fill="white"/>
</clipPath>
</defs>
</svg>
